<?xml version="1.0" encoding="UTF-8" standalone="no"?>
<svg
   xmlns:dc="http://purl.org/dc/elements/1.1/"
   xmlns:cc="http://creativecommons.org/ns#"
   xmlns:rdf="http://www.w3.org/1999/02/22-rdf-syntax-ns#"
   xmlns:svg="http://www.w3.org/2000/svg"
   xmlns="http://www.w3.org/2000/svg"
   xmlns:sodipodi="http://sodipodi.sourceforge.net/DTD/sodipodi-0.dtd"
   xmlns:inkscape="http://www.inkscape.org/namespaces/inkscape"
   width="348"
   height="60"
   viewBox="0 0 92.075 15.875001"
   version="1.1"
   id="svg8"
   inkscape:version="1.0.2 (e86c870879, 2021-01-15)"
   sodipodi:docname="ct-logo_navbar.svg"
   inkscape:export-filename="/home/jewells/Documents/Git/central-tech/brand/png/ct-mark_blue.png"
   inkscape:export-xdpi="96"
   inkscape:export-ydpi="96">
  <defs
     id="defs2" />
  <sodipodi:namedview
     id="base"
     pagecolor="#ffffff"
     bordercolor="#666666"
     borderopacity="1.0"
     inkscape:pageopacity="0.0"
     inkscape:pageshadow="2"
     inkscape:zoom="2.8000001"
     inkscape:cx="212.25037"
     inkscape:cy="-9.0820431"
     inkscape:document-units="px"
     inkscape:current-layer="layer1"
     inkscape:document-rotation="0"
     showgrid="false"
     units="px"
     inkscape:showpageshadow="false"
     inkscape:pagecheckerboard="true"
     inkscape:window-width="1920"
     inkscape:window-height="1016"
     inkscape:window-x="0"
     inkscape:window-y="27"
     inkscape:window-maximized="1"
     inkscape:snap-page="true"
     inkscape:snap-text-baseline="true"
     inkscape:snap-center="true"
     inkscape:snap-object-midpoints="true"
     inkscape:snap-midpoints="true"
     inkscape:snap-smooth-nodes="true"
     inkscape:snap-intersection-paths="true"
     inkscape:object-paths="true"
     inkscape:snap-bbox="true"
     inkscape:bbox-paths="true"
     inkscape:bbox-nodes="true"
     inkscape:snap-bbox-edge-midpoints="true"
     inkscape:snap-bbox-midpoints="true"
     showguides="false"
     inkscape:guide-bbox="true">
    <sodipodi:guide
       position="22.632571,74.451602"
       orientation="-0.78801075,-0.61566148"
       id="guide1566"
       inkscape:label=""
       inkscape:locked="false"
       inkscape:color="rgb(0,0,255)" />
    <sodipodi:guide
       position="22.632571,74.451602"
       orientation="0.78801075,-0.61566148"
       id="guide1568"
       inkscape:label=""
       inkscape:locked="false"
       inkscape:color="rgb(0,0,255)" />
    <sodipodi:guide
       position="123.8084,71.625686"
       orientation="1,0"
       id="guide1786" />
    <sodipodi:guide
       position="61.856823,28.112473"
       orientation="0,-1"
       id="guide1808" />
    <sodipodi:guide
       position="95.695927,71.625686"
       orientation="0,-1"
       id="guide1879" />
    <sodipodi:guide
       position="114.43757,62.254863"
       orientation="0,-1"
       id="guide1885" />
    <sodipodi:guide
       position="114.43757,37.483297"
       orientation="0,-1"
       id="guide1887" />
    <sodipodi:guide
       position="114.43739,62.254863"
       orientation="1,0"
       id="guide1889" />
    <sodipodi:guide
       position="105.06675,71.625686"
       orientation="1,0"
       id="guide1891" />
    <sodipodi:guide
       position="361.04586,56.22494"
       orientation="0,-1"
       id="guide979" />
  </sodipodi:namedview>
  <metadata
     id="metadata5">
    <rdf:RDF>
      <cc:Work
         rdf:about="">
        <dc:format>image/svg+xml</dc:format>
        <dc:type
           rdf:resource="http://purl.org/dc/dcmitype/StillImage" />
        <dc:title></dc:title>
      </cc:Work>
    </rdf:RDF>
  </metadata>
  <g
     inkscape:label="Layer 1"
     inkscape:groupmode="layer"
     id="layer1"
     style="opacity:1">
    <g
       id="g876"
       transform="matrix(0.23226029,0,0,0.23226029,-4.2918521,-4.35294)">
      <path
         id="path1564"
         style="color:#000000;font-style:normal;font-variant:normal;font-weight:normal;font-stretch:normal;font-size:medium;line-height:normal;font-family:sans-serif;font-variant-ligatures:normal;font-variant-position:normal;font-variant-caps:normal;font-variant-numeric:normal;font-variant-alternates:normal;font-variant-east-asian:normal;font-feature-settings:normal;font-variation-settings:normal;text-indent:0;text-align:start;text-decoration:none;text-decoration-line:none;text-decoration-style:solid;text-decoration-color:#000000;letter-spacing:normal;word-spacing:normal;text-transform:none;writing-mode:lr-tb;direction:ltr;text-orientation:mixed;dominant-baseline:auto;baseline-shift:baseline;text-anchor:start;white-space:normal;shape-padding:0;shape-margin:0;inline-size:0;clip-rule:nonzero;display:inline;overflow:visible;visibility:visible;opacity:1;isolation:auto;mix-blend-mode:normal;color-interpolation:sRGB;color-interpolation-filters:linearRGB;solid-color:#000000;solid-opacity:1;vector-effect:none;fill:#1b6dc1;fill-opacity:1;fill-rule:nonzero;stroke:none;stroke-width:2.08337;stroke-linecap:round;stroke-linejoin:round;stroke-miterlimit:4;stroke-dasharray:none;stroke-dashoffset:0;stroke-opacity:1;color-rendering:auto;image-rendering:auto;shape-rendering:auto;text-rendering:auto;enable-background:accumulate;stop-color:#000000;stop-opacity:1"
         d="m 61.857189,18.741644 c -10.1844,0 -20.37096,2.631589 -29.49268,7.898019 a 3.8585743,3.8585743 0 0 0 -1.41144,5.274319 3.8585743,3.8585743 0 0 0 5.27324,1.411437 c 13.37991,-7.724893 29.36443,-8.935039 43.56076,-3.631409 0.72823,-2.571204 2.0625,-4.886363 3.8392,-6.783727 -6.98586,-2.774615 -14.37619,-4.168639 -21.76908,-4.168639 z" />
      <circle
         style="fill:#1b6dc1;fill-opacity:1;stroke-width:0.667578;stroke-linecap:round;stroke-linejoin:round"
         id="path1522"
         cx="28.112469"
         cy="34.134212"
         r="9.3708229" />
      <circle
         style="fill:#1b6dc1;fill-opacity:1;stroke-width:0.667578;stroke-linecap:round;stroke-linejoin:round"
         id="path1522-3"
         cx="95.69593"
         cy="34.207653"
         r="9.3708229" />
      <circle
         style="fill:#1b6dc1;fill-opacity:1;stroke-width:0.667578;stroke-linecap:round;stroke-linejoin:round"
         id="path1522-3-6"
         cx="61.856823"
         cy="77.720863"
         r="9.3708229" />
      <path
         id="path1570"
         style="color:#000000;font-style:normal;font-variant:normal;font-weight:normal;font-stretch:normal;font-size:medium;line-height:normal;font-family:sans-serif;font-variant-ligatures:normal;font-variant-position:normal;font-variant-caps:normal;font-variant-numeric:normal;font-variant-alternates:normal;font-variant-east-asian:normal;font-feature-settings:normal;font-variation-settings:normal;text-indent:0;text-align:start;text-decoration:none;text-decoration-line:none;text-decoration-style:solid;text-decoration-color:#000000;letter-spacing:normal;word-spacing:normal;text-transform:none;writing-mode:lr-tb;direction:ltr;text-orientation:mixed;dominant-baseline:auto;baseline-shift:baseline;text-anchor:start;white-space:normal;shape-padding:0;shape-margin:0;inline-size:0;clip-rule:nonzero;display:inline;overflow:visible;visibility:visible;opacity:1;isolation:auto;mix-blend-mode:normal;color-interpolation:sRGB;color-interpolation-filters:linearRGB;solid-color:#000000;solid-opacity:1;vector-effect:none;fill:#1b6dc1;fill-opacity:1;fill-rule:nonzero;stroke:none;stroke-width:2.08337;stroke-linecap:round;stroke-linejoin:round;stroke-miterlimit:4;stroke-dasharray:none;stroke-dashoffset:0;stroke-opacity:1;color-rendering:auto;image-rendering:auto;shape-rendering:auto;text-rendering:auto;enable-background:accumulate;stop-color:#000000;stop-opacity:1"
         d="m 41.007539,44.486646 a 16.536747,16.536747 0 0 1 -6.10223,4.724173 l 23.90077,30.87289 a 3.8585743,3.8585743 0 0 0 5.41104,0.68688 3.8585743,3.8585743 0 0 0 0.69227,-5.41104 z" />
      <path
         id="path1572"
         style="color:#000000;font-style:normal;font-variant:normal;font-weight:normal;font-stretch:normal;font-size:medium;line-height:normal;font-family:sans-serif;font-variant-ligatures:normal;font-variant-position:normal;font-variant-caps:normal;font-variant-numeric:normal;font-variant-alternates:normal;font-variant-east-asian:normal;font-feature-settings:normal;font-variation-settings:normal;text-indent:0;text-align:start;text-decoration:none;text-decoration-line:none;text-decoration-style:solid;text-decoration-color:#000000;letter-spacing:normal;word-spacing:normal;text-transform:none;writing-mode:lr-tb;direction:ltr;text-orientation:mixed;dominant-baseline:auto;baseline-shift:baseline;text-anchor:start;white-space:normal;shape-padding:0;shape-margin:0;inline-size:0;clip-rule:nonzero;display:inline;overflow:visible;visibility:visible;opacity:1;isolation:auto;mix-blend-mode:normal;color-interpolation:sRGB;color-interpolation-filters:linearRGB;solid-color:#000000;solid-opacity:1;vector-effect:none;fill:#1b6dc1;fill-opacity:1;fill-rule:nonzero;stroke:none;stroke-width:2.08337;stroke-linecap:round;stroke-linejoin:round;stroke-miterlimit:4;stroke-dasharray:none;stroke-dashoffset:0;stroke-opacity:1;color-rendering:auto;image-rendering:auto;shape-rendering:auto;text-rendering:auto;enable-background:accumulate;stop-color:#000000;stop-opacity:1"
         d="m 95.622949,30.350742 a 3.8585743,3.8585743 0 0 0 -2.97468,1.488953 l -23.96752,30.819074 c 2.38822,1.08373 4.4721,2.71666 6.09147,4.74031 l 23.97182,-30.822295 a 3.8585743,3.8585743 0 0 0 -0.68042,-5.41643 3.8585743,3.8585743 0 0 0 -2.44067,-0.809612 z" />
      <g
         aria-label="CENTRAL TECH"
         id="text1658"
         style="font-size:30.3964px;line-height:1;font-family:Manrope;-inkscape-font-specification:Manrope;letter-spacing:0px;word-spacing:0px;fill:#1b6dc1;fill-opacity:1;stroke:#1b6dc1;stroke-width:2.75855;stroke-miterlimit:4;stroke-dasharray:none;stroke-opacity:1"
         transform="matrix(1.2695503,0,0,1.2695503,-30.071817,-19.3305)">
        <path
           d="m 118.14863,76.437932 q -3.34361,0 -6.01849,-1.398234 -2.64449,-1.428631 -4.16431,-3.951532 -1.51982,-2.522902 -1.51982,-5.714524 0,-3.191622 1.51982,-5.714523 1.51982,-2.522901 4.16431,-3.921136 2.67488,-1.42863 6.01849,-1.42863 2.91805,0 5.25858,1.033477 2.34052,1.033478 3.89073,2.978847 l -3.82994,3.46519 q -2.06696,-2.492505 -5.01541,-2.492505 -1.73259,0 -3.10043,0.75991 -1.33744,0.75991 -2.09735,2.158145 -0.72952,1.367838 -0.72952,3.161225 0,1.793388 0.72952,3.191622 0.75991,1.367838 2.09735,2.127748 1.36784,0.75991 3.10043,0.75991 2.94845,0 5.01541,-2.492504 l 3.82994,3.465189 q -1.55021,1.94537 -3.89073,2.978847 -2.34053,1.033478 -5.25858,1.033478 z"
           style="font-style:normal;font-variant:normal;font-weight:800;font-stretch:normal;font-size:30.3964px;font-family:Montserrat;-inkscape-font-specification:'Montserrat Ultra-Bold';fill:#1b6dc1;fill-opacity:1;stroke:none;stroke-width:2.75855;stroke-miterlimit:4;stroke-dasharray:none;stroke-opacity:1"
           id="path936" />
        <path
           d="m 147.06416,71.361733 v 4.65065 H 129.98138 V 54.734902 H 146.669 v 4.650649 h -10.72993 v 3.586776 h 9.45328 v 4.498667 h -9.45328 v 3.890739 z"
           style="font-style:normal;font-variant:normal;font-weight:800;font-stretch:normal;font-size:30.3964px;font-family:Montserrat;-inkscape-font-specification:'Montserrat Ultra-Bold';fill:#1b6dc1;fill-opacity:1;stroke:none;stroke-width:2.75855;stroke-miterlimit:4;stroke-dasharray:none;stroke-opacity:1"
           id="path938" />
        <path
           d="m 170.64796,54.734902 v 21.277481 h -4.95461 l -9.39249,-11.337858 v 11.337858 h -5.8969 V 54.734902 h 4.95461 l 9.39249,11.337858 V 54.734902 Z"
           style="font-style:normal;font-variant:normal;font-weight:800;font-stretch:normal;font-size:30.3964px;font-family:Montserrat;-inkscape-font-specification:'Montserrat Ultra-Bold';fill:#1b6dc1;fill-opacity:1;stroke:none;stroke-width:2.75855;stroke-miterlimit:4;stroke-dasharray:none;stroke-opacity:1"
           id="path940" />
        <path
           d="m 179.45199,59.507137 h -6.53522 v -4.772235 h 19.05854 v 4.772235 h -6.50483 v 16.505246 h -6.01849 z"
           style="font-style:normal;font-variant:normal;font-weight:800;font-stretch:normal;font-size:30.3964px;font-family:Montserrat;-inkscape-font-specification:'Montserrat Ultra-Bold';fill:#1b6dc1;fill-opacity:1;stroke:none;stroke-width:2.75855;stroke-miterlimit:4;stroke-dasharray:none;stroke-opacity:1"
           id="path942" />
        <path
           d="m 203.51882,70.358652 h -3.28281 v 5.653731 h -6.01849 V 54.734902 h 9.72685 q 2.88766,0 5.01541,0.972685 2.12775,0.942288 3.28281,2.735676 1.15506,1.762991 1.15506,4.164307 0,2.310126 -1.09427,4.042721 -1.06387,1.702199 -3.07004,2.674883 l 4.58986,6.687209 h -6.44404 z m 3.79955,-7.751082 q 0,-1.489424 -0.94229,-2.310127 -0.94229,-0.820702 -2.79647,-0.820702 h -3.3436 v 6.231262 h 3.3436 q 1.85418,0 2.79647,-0.790307 0.94229,-0.820702 0.94229,-2.310126 z"
           style="font-style:normal;font-variant:normal;font-weight:800;font-stretch:normal;font-size:30.3964px;font-family:Montserrat;-inkscape-font-specification:'Montserrat Ultra-Bold';fill:#1b6dc1;fill-opacity:1;stroke:none;stroke-width:2.75855;stroke-miterlimit:4;stroke-dasharray:none;stroke-opacity:1"
           id="path944" />
        <path
           d="m 230.97389,71.878472 h -8.99733 l -1.6718,4.133911 h -6.14008 l 9.39249,-21.277481 h 5.9273 l 9.42288,21.277481 h -6.26166 z m -1.76299,-4.437874 -2.73567,-6.808794 -2.73568,6.808794 z"
           style="font-style:normal;font-variant:normal;font-weight:800;font-stretch:normal;font-size:30.3964px;font-family:Montserrat;-inkscape-font-specification:'Montserrat Ultra-Bold';fill:#1b6dc1;fill-opacity:1;stroke:none;stroke-width:2.75855;stroke-miterlimit:4;stroke-dasharray:none;stroke-opacity:1"
           id="path946" />
        <path
           d="m 240.58391,54.734902 h 6.01849 v 16.505246 h 10.15239 v 4.772235 h -16.17088 z"
           style="font-style:normal;font-variant:normal;font-weight:800;font-stretch:normal;font-size:30.3964px;font-family:Montserrat;-inkscape-font-specification:'Montserrat Ultra-Bold';fill:#1b6dc1;fill-opacity:1;stroke:none;stroke-width:2.75855;stroke-miterlimit:4;stroke-dasharray:none;stroke-opacity:1"
           id="path948" />
        <path
           d="m 272.4816,59.507137 h -6.53523 v -4.772235 h 19.05854 v 4.772235 h -6.50483 v 16.505246 h -6.01848 z"
           style="font-style:normal;font-variant:normal;font-weight:800;font-stretch:normal;font-size:30.3964px;font-family:Montserrat;-inkscape-font-specification:'Montserrat Ultra-Bold';fill:#1b6dc1;fill-opacity:1;stroke:none;stroke-width:2.75855;stroke-miterlimit:4;stroke-dasharray:none;stroke-opacity:1"
           id="path950" />
        <path
           d="m 304.32991,71.361733 v 4.65065 H 287.24713 V 54.734902 h 16.68763 v 4.650649 h -10.72993 v 3.586776 h 9.45328 v 4.498667 h -9.45328 v 3.890739 z"
           style="font-style:normal;font-variant:normal;font-weight:800;font-stretch:normal;font-size:30.3964px;font-family:Montserrat;-inkscape-font-specification:'Montserrat Ultra-Bold';fill:#1b6dc1;fill-opacity:1;stroke:none;stroke-width:2.75855;stroke-miterlimit:4;stroke-dasharray:none;stroke-opacity:1"
           id="path952" />
        <path
           d="m 318.21868,76.437932 q -3.3436,0 -6.01849,-1.398234 -2.64448,-1.428631 -4.1643,-3.951532 -1.51982,-2.522902 -1.51982,-5.714524 0,-3.191622 1.51982,-5.714523 1.51982,-2.522901 4.1643,-3.921136 2.67489,-1.42863 6.01849,-1.42863 2.91806,0 5.25858,1.033477 2.34052,1.033478 3.89074,2.978847 l -3.82995,3.46519 q -2.06695,-2.492505 -5.0154,-2.492505 -1.7326,0 -3.10044,0.75991 -1.33744,0.75991 -2.09735,2.158145 -0.72951,1.367838 -0.72951,3.161225 0,1.793388 0.72951,3.191622 0.75991,1.367838 2.09735,2.127748 1.36784,0.75991 3.10044,0.75991 2.94845,0 5.0154,-2.492504 l 3.82995,3.465189 q -1.55022,1.94537 -3.89074,2.978847 -2.34052,1.033478 -5.25858,1.033478 z"
           style="font-style:normal;font-variant:normal;font-weight:800;font-stretch:normal;font-size:30.3964px;font-family:Montserrat;-inkscape-font-specification:'Montserrat Ultra-Bold';fill:#1b6dc1;fill-opacity:1;stroke:none;stroke-width:2.75855;stroke-miterlimit:4;stroke-dasharray:none;stroke-opacity:1"
           id="path954" />
        <path
           d="m 350.29544,54.734902 v 21.277481 h -6.01849 v -8.298218 h -8.20702 v 8.298218 h -6.01849 V 54.734902 h 6.01849 v 7.994254 h 8.20702 v -7.994254 z"
           style="font-style:normal;font-variant:normal;font-weight:800;font-stretch:normal;font-size:30.3964px;font-family:Montserrat;-inkscape-font-specification:'Montserrat Ultra-Bold';fill:#1b6dc1;fill-opacity:1;stroke:none;stroke-width:2.75855;stroke-miterlimit:4;stroke-dasharray:none;stroke-opacity:1"
           id="path956" />
      </g>
    </g>
  </g>
</svg>
